<svg xmlns="http://www.w3.org/2000/svg" width="1272" height="758" viewBox="0 0 1272 758"><g transform="translate(-36.667 -1006.873)"><rect width="1272" height="758" rx="14" transform="translate(36.667 1006.873)" fill="#fff"/><g transform="translate(404.668 1281.09)"><g transform="translate(326 0)"><g transform="translate(0 0)"><rect width="211" height="211" transform="translate(0 -0.217)" fill="#1a2c44"/></g><g transform="translate(56.12 41.512)"><g transform="translate(0 0)"><path d="M16.505,83.344V66.267H0V49.158H16.505v-.026H33.269v.026H49.444V66.267H33.269V83.344Zm0-34.211V33.156H0V16.047H16.505V0H33.269V16.047H49.444V33.156H33.269V49.132Z" fill="#fff"/><path d="M15.647,34.222H0V17.111H32.412V34.222ZM0,17.111V0H16.765V17.111Z" transform="translate(0.865 92.227)" fill="#fff"/></g><path d="M32.365,49.9H0V32.8H16.154V17.118H0V0H32.91V32.8H49.121V49.9Z" transform="translate(60.346 76.541)" fill="#fff"/></g></g><rect width="209" height="211" transform="translate(0 -0.217)" fill="#ec743f"/><g transform="translate(68.44 56)"><rect width="25.497" height="26.023" transform="translate(23.796)" fill="#fff"/><rect width="25.497" height="26.023" transform="translate(47.593)" fill="#fff"/><rect width="25.497" height="26.023" fill="#fff"/><rect width="25.497" height="26.023" transform="translate(0 24.289)" fill="#fff"/><rect width="25.497" height="26.023" transform="translate(0 48.574)" fill="#fff"/><rect width="25.497" height="26.023" transform="translate(0 72.863)" fill="#fff"/><rect width="25.497" height="26.023" transform="translate(23.796 72.863)" fill="#fff"/><rect width="25.497" height="26.023" transform="translate(47.593 72.863)" fill="#fff"/></g></g></g></svg>