<svg xmlns="http://www.w3.org/2000/svg" width="1024" height="730" viewBox="0 0 1024 730"><g transform="translate(-2580 -3336)"><rect width="1024" height="730" transform="translate(2580 3336)" fill="#ec3846"/><path d="M36.1,8.019a2.5,2.5,0,0,1,4.791,0l6.073,20.332a2.5,2.5,0,0,0,1.68,1.68L68.981,36.1a2.5,2.5,0,0,1,0,4.791L48.649,46.969a2.5,2.5,0,0,0-1.68,1.68L40.9,68.981a2.5,2.5,0,0,1-4.791,0L30.031,48.649a2.5,2.5,0,0,0-1.68-1.68L8.019,40.9a2.5,2.5,0,0,1,0-4.791l20.332-6.073a2.5,2.5,0,0,0,1.68-1.68Z" transform="translate(3150 3564)" fill="#fff"/><g transform="translate(3005.956 3618)"><path d="M-206.045,37.155c0,48.025,32.925,83.425,85.406,83.425s86.4-35.4,86.4-83.425S-67.168-46.27-119.649-46.27-206.045-10.87-206.045,37.155Zm45.55,0c0-28.221,15.843-44.56,40.351-44.56s40.351,16.338,40.351,44.56-15.843,44.56-40.351,44.56S-160.5,65.376-160.5,37.155Z" transform="translate(206.045 46.27)" fill="#fff" stroke="#ec3846" stroke-width="1"/><g transform="translate(67.352 50.465)" fill="#fff" stroke="#ec3846" stroke-width="0.7"><circle cx="24.755" cy="24.755" r="24.755" stroke="none"/><circle cx="24.755" cy="24.755" r="24.405" fill="none"/></g></g></g></svg>